<?xml version="1.0" encoding="utf-8"?>
<!-- Generator: Adobe Illustrator 18.1.1, SVG Export Plug-In . SVG Version: 6.00 Build 0)  -->
<svg version="1.1" id="Слой_1" xmlns="http://www.w3.org/2000/svg" xmlns:xlink="http://www.w3.org/1999/xlink" x="0px" y="0px"
	 viewBox="0 0 595.3 841.9" enable-background="new 0 0 595.3 841.9" xml:space="preserve">
<g>
	<path fill="#FFFFFF" stroke="#213E91" stroke-width="3" stroke-miterlimit="10" d="M42.2,431.3c-3,0-5.8-0.8-8.3-2.4
		c-2.5-1.6-4.5-3.7-5.9-6.5c-1.4-2.7-2.1-5.8-2.1-9.2v-6.6h15.8v4.7c0,0.7,0.2,1.4,0.6,1.8c0.4,0.5,0.9,0.7,1.5,0.7h11.6
		c1.8,0,2.8-1,2.8-3.1v-3c0-1.6-0.6-2.8-1.7-3.7l-19.7-17.1c-3.7-3.2-6.3-6.1-8-8.8c-1.7-2.7-2.5-5.6-2.5-8.8v-8.5
		c0-5.2,1.5-9.6,4.6-13c3-3.4,7-5.1,11.7-5.1h14.7c4.6,0,8.5,1.7,11.6,5.1c3.1,3.4,4.7,7.7,4.7,13v6.5H57.7v-4.6
		c0-0.7-0.2-1.4-0.6-1.8c-0.4-0.5-0.9-0.7-1.5-0.7H44.4c-1.8,0-2.8,1-2.8,3.1v2.7c0,1.6,0.6,2.8,1.7,3.7l19.5,16.8
		c3.7,3.2,6.4,6,8.1,8.7c1.7,2.6,2.6,5.4,2.6,8.4v9.5c0,5.2-1.5,9.6-4.6,13c-3.1,3.4-7,5.1-11.7,5.1H42.2z"/>
	<path fill="#FFFFFF" stroke="#213E91" stroke-width="3" stroke-miterlimit="10" d="M133,343.4v17.5h-32v17.5h30.1v17.5H101v17.5h32
		v17.5H85.6v-87.3H133z"/>
	<path fill="#FFFFFF" stroke="#213E91" stroke-width="3" stroke-miterlimit="10" d="M162.4,430.7c-4.6,0-8.5-1.7-11.6-5.1
		c-3.1-3.4-4.6-7.7-4.6-13v-16.1c0-5.2,1.5-9.6,4.6-13c3.1-3.4,6.9-5.2,11.6-5.2H178v-15.6c0-1.7-0.7-2.5-2.1-2.5H164
		c-0.6,0-1.1,0.2-1.5,0.6c-0.4,0.4-0.6,1-0.6,1.9v4.7h-15.7v-6.6c0-5.2,1.5-9.6,4.6-13c3.1-3.4,6.9-5.1,11.6-5.1h14.8
		c4.6,0,8.5,1.7,11.6,5.1c3.1,3.4,4.6,7.7,4.6,13v69.9H162.4z M178,413.2v-17.5h-14.3c-0.6,0-1.1,0.2-1.4,0.6
		c-0.4,0.4-0.6,1-0.6,1.7V411c0,0.7,0.2,1.2,0.6,1.6c0.4,0.4,0.8,0.6,1.4,0.6H178z"/>
	<path fill="#FFFFFF" stroke="#213E91" stroke-width="3" stroke-miterlimit="10" d="M238.1,430.7v-87.3h31.1c3,0,5.7,0.8,8.2,2.3
		c2.5,1.5,4.4,3.7,5.8,6.5c1.4,2.8,2.1,5.9,2.1,9.3v11c0,3-0.6,5.7-1.8,8.2c-1.2,2.5-2.8,4.4-4.9,5.7v1.2c2.1,1.3,3.7,3.2,4.9,5.7
		c1.2,2.5,1.8,5.2,1.8,8.2v11c0,5.2-1.6,9.6-4.7,13c-3.1,3.4-7,5.1-11.6,5.1H238.1z M267.8,378.3c0.6,0,1.1-0.2,1.5-0.6
		c0.4-0.4,0.6-1,0.6-1.7v-12.7c0-0.7-0.2-1.3-0.6-1.7c-0.4-0.4-0.9-0.6-1.5-0.6h-14.3v17.5H267.8z M267.8,413.2
		c0.6,0,1.1-0.2,1.5-0.6c0.4-0.4,0.6-1,0.6-1.7v-12.7c0-0.7-0.2-1.3-0.6-1.7c-0.4-0.4-0.9-0.6-1.5-0.6h-14.3v17.5H267.8z"/>
	<path fill="#FFFFFF" stroke="#213E91" stroke-width="3" stroke-miterlimit="10" d="M313.7,430.7c-4.6,0-8.5-1.7-11.6-5.1
		c-3.1-3.4-4.6-7.7-4.6-13v-16.1c0-5.2,1.5-9.6,4.6-13c3.1-3.4,6.9-5.2,11.6-5.2h15.5v-15.6c0-1.7-0.7-2.5-2.1-2.5h-11.9
		c-0.6,0-1.1,0.2-1.5,0.6c-0.4,0.4-0.6,1-0.6,1.9v4.7h-15.7v-6.6c0-5.2,1.5-9.6,4.6-13c3.1-3.4,6.9-5.1,11.6-5.1h14.8
		c4.6,0,8.5,1.7,11.6,5.1c3.1,3.4,4.6,7.7,4.6,13v69.9H313.7z M329.2,413.2v-17.5h-14.3c-0.6,0-1.1,0.2-1.4,0.6
		c-0.4,0.4-0.6,1-0.6,1.7V411c0,0.7,0.2,1.2,0.6,1.6c0.4,0.4,0.8,0.6,1.4,0.6H329.2z"/>
	<path fill="#FFFFFF" stroke="#213E91" stroke-width="3" stroke-miterlimit="10" d="M400.9,343.4v17.5h-15.5v69.9H369v-69.9h-15.5
		v-17.5H400.9z"/>
	<path fill="#FFFFFF" stroke="#213E91" stroke-width="3" stroke-miterlimit="10" d="M454.9,343.4v17.5h-15.5v69.9H423v-69.9h-15.5
		v-17.5H454.9z"/>
	<path fill="#FFFFFF" stroke="#213E91" stroke-width="3" stroke-miterlimit="10" d="M481.7,343.4v69.9h31v17.5h-47.3v-87.3H481.7z"
		/>
	<path fill="#FFFFFF" stroke="#213E91" stroke-width="3" stroke-miterlimit="10" d="M569.4,343.4v17.5h-32v17.5h30.1v17.5h-30.1
		v17.5h32v17.5H522v-87.3H569.4z"/>
</g>
</svg>
